<svg width="1099" height="454" viewBox="0 0 1099 454" fill="none" xmlns="http://www.w3.org/2000/svg">
<path d="M357 154.69C324.62 177.06 306.15 206.18 308.53 247.15C310.91 288.12 333.93 313.72 368.53 332.08C365.48 340.36 362.53 348.83 359.25 357.2C351.57 377.1 339.44 394.37 326.57 411.11C319.96 419.71 313.14 428.27 305.48 435.92C295.662 446.032 282.261 451.876 268.17 452.19C253.93 452.7 241.35 448.3 229.07 442.29C218.673 437.093 207.204 434.402 195.58 434.43C185.04 434.43 174.65 434.95 164.73 438.71C158.49 441.08 152.42 443.92 146.32 446.71C127.38 455.2 108.69 455.81 90.49 444.78C87.7 443.09 85.4 440.54 83.04 438.22C73.5599 428.687 64.7395 418.52 56.64 407.79C46.1249 394.499 37.0068 380.16 29.43 365C18.9414 343.356 10.8597 320.627 5.33001 297.22C4.40001 293.33 0.85001 260.69 0.68001 248.61C0.35001 225.91 5.63001 196.98 7.84001 190.73C13.2052 175.538 21.2789 161.443 31.67 149.13C40.72 138.35 51.57 130.26 63.67 123.42C75.34 116.83 87.86 112.34 100.96 111.06C115.55 109.64 130.32 110.06 144.33 116.06C153.67 120.06 163.33 123.34 172.78 127.15C184.48 131.85 195.63 129.72 206.83 125.22C218.03 120.72 229.5 116.22 241.07 112.46C246.57 110.67 252.6 110.29 258.43 109.79C263.402 109.512 268.385 109.488 273.36 109.72C295.65 110.12 315.92 117.05 334.08 129.64C343.41 136.09 350.46 145 357 154.69Z" fill="white"/>
<path d="M718.6 224.48C689.427 297.493 660.25 370.537 631.07 443.61H588.18L500.76 225.22L499.63 225.35V229.51C499.63 250.35 499.71 271.18 499.63 292.01C499.58 301.8 499.07 311.59 498.99 321.39C498.8 342.77 498.73 364.16 498.64 385.55C498.64 393.9 498.53 402.26 498.64 410.61C498.77 417.22 499.29 423.82 499.51 430.44C499.64 434.36 499.51 438.3 499.51 443.22C479.06 444.22 458.84 443.91 438.33 443.28V118.21H516.33C517.55 120.75 519.22 123.75 520.47 126.93C532.73 158.13 544.86 189.39 557.17 220.57C565.38 241.37 573.9 262.04 582.17 282.83C588.98 300.05 595.53 317.37 602.27 334.61C604.49 340.31 606.96 345.91 609.27 351.56L610.34 351.42C640.9 273.613 671.423 195.913 701.91 118.32H781.25V443.32H720.25V224.77L718.6 224.48Z" fill="white"/>
<path d="M1056.43 329.13H1098.43V384.13H1056.2V443.36H991.2V384.58H830.2C830.09 382.41 829.95 380.77 829.95 379.12C829.95 363.93 830.01 348.73 829.89 333.53C829.89 329.22 830.48 325.43 832.95 321.62C841.39 308.56 849.43 295.24 857.6 282.01C867.53 265.94 877.4 249.84 887.38 233.81C895.78 220.32 904.38 206.95 912.78 193.49C923.15 176.9 933.42 160.25 943.78 143.67C949.18 135.03 954.71 126.47 959.91 118.3H1056.37L1056.43 329.13ZM888.53 330.71H991.8V168L888.53 330.71Z" fill="white"/>
<path d="M183.19 104.26C176 49.82 231 -0.750001 275 0.709999C275 6.71 275.49 12.79 274.9 18.78C273.677 30.4397 270.213 41.7535 264.7 52.1C258.82 63.31 252 74 242.3 82.33C231.3 91.8 218.99 99.33 204.87 103.13C197.826 105.169 190.407 105.556 183.19 104.26Z" fill="white"/>
</svg>
